<mxfile host="Electron" agent="Mozilla/5.0 (Windows NT 10.0; Win64; x64) AppleWebKit/537.36 (KHTML, like Gecko) draw.io/27.0.5 Chrome/134.0.6998.205 Electron/35.3.0 Safari/537.36" version="27.0.5">
  <diagram id="wFc8VCzFppFHuw0yz1xw" name="Page-1">
    <mxGraphModel dx="1268" dy="611" grid="1" gridSize="10" guides="1" tooltips="1" connect="1" arrows="1" fold="1" page="1" pageScale="1" pageWidth="850" pageHeight="1100" math="0" shadow="0">
      <root>
        <mxCell id="0" />
        <mxCell id="1" parent="0" />
        <mxCell id="PolicyHolder" value="PolicyHolder" style="shape=table;startSize=30;container=1;collapsible=0;childLayout=tableLayout;fixedRows=1;rowLines=0;" parent="1" vertex="1">
          <mxGeometry x="50" y="60" width="200" height="170" as="geometry" />
        </mxCell>
        <mxCell id="PolicyHolder_0" value="+ PolicyHolderID (PK)" style="shape=tableRow;align=left;spacingLeft=4;" parent="PolicyHolder" vertex="1">
          <mxGeometry y="30" width="200" height="20" as="geometry" />
        </mxCell>
        <mxCell id="PolicyHolder_1" value="FullName" style="shape=tableRow;align=left;spacingLeft=4;" parent="PolicyHolder" vertex="1">
          <mxGeometry y="50" width="200" height="20" as="geometry" />
        </mxCell>
        <mxCell id="PolicyHolder_2" value="NationalID " style="shape=tableRow;align=left;spacingLeft=4;" parent="PolicyHolder" vertex="1">
          <mxGeometry y="70" width="200" height="20" as="geometry" />
        </mxCell>
        <mxCell id="PolicyHolder_3" value="Email " style="shape=tableRow;align=left;spacingLeft=4;" parent="PolicyHolder" vertex="1">
          <mxGeometry y="90" width="200" height="20" as="geometry" />
        </mxCell>
        <mxCell id="PolicyHolder_4" value="Phone" style="shape=tableRow;align=left;spacingLeft=4;" parent="PolicyHolder" vertex="1">
          <mxGeometry y="110" width="200" height="20" as="geometry" />
        </mxCell>
        <mxCell id="PolicyHolder_5" value="Address" style="shape=tableRow;align=left;spacingLeft=4;" parent="PolicyHolder" vertex="1">
          <mxGeometry y="130" width="200" height="20" as="geometry" />
        </mxCell>
        <mxCell id="PolicyHolder_6" value="DateOfRegistration" style="shape=tableRow;align=left;spacingLeft=4;" parent="PolicyHolder" vertex="1">
          <mxGeometry y="150" width="200" height="20" as="geometry" />
        </mxCell>
        <mxCell id="Policy" value="Policy" style="shape=table;startSize=30;container=1;collapsible=0;childLayout=tableLayout;fixedRows=1;rowLines=0;" parent="1" vertex="1">
          <mxGeometry x="400" y="50" width="200" height="190" as="geometry" />
        </mxCell>
        <mxCell id="Policy_0" value="+ PolicyID (PK)" style="shape=tableRow;align=left;spacingLeft=4;" parent="Policy" vertex="1">
          <mxGeometry y="30" width="200" height="20" as="geometry" />
        </mxCell>
        <mxCell id="Policy_1" value="PolicyHolderID (FK)" style="shape=tableRow;align=left;spacingLeft=4;" parent="Policy" vertex="1">
          <mxGeometry y="50" width="200" height="20" as="geometry" />
        </mxCell>
        <mxCell id="Policy_2" value="PolicyType" style="shape=tableRow;align=left;spacingLeft=4;" parent="Policy" vertex="1">
          <mxGeometry y="70" width="200" height="20" as="geometry" />
        </mxCell>
        <mxCell id="Policy_3" value="StartDate" style="shape=tableRow;align=left;spacingLeft=4;" parent="Policy" vertex="1">
          <mxGeometry y="90" width="200" height="20" as="geometry" />
        </mxCell>
        <mxCell id="Policy_4" value="ExpiryDate" style="shape=tableRow;align=left;spacingLeft=4;" parent="Policy" vertex="1">
          <mxGeometry y="110" width="200" height="20" as="geometry" />
        </mxCell>
        <mxCell id="Policy_5" value="PremiumAmount" style="shape=tableRow;align=left;spacingLeft=4;" parent="Policy" vertex="1">
          <mxGeometry y="130" width="200" height="20" as="geometry" />
        </mxCell>
        <mxCell id="Policy_6" value="PaymentFrequency" style="shape=tableRow;align=left;spacingLeft=4;" parent="Policy" vertex="1">
          <mxGeometry y="150" width="200" height="20" as="geometry" />
        </mxCell>
        <mxCell id="Policy_7" value="Status" style="shape=tableRow;align=left;spacingLeft=4;" parent="Policy" vertex="1">
          <mxGeometry y="170" width="200" height="20" as="geometry" />
        </mxCell>
        <mxCell id="Claim" value="Claim" style="shape=table;startSize=30;container=1;collapsible=0;childLayout=tableLayout;fixedRows=1;rowLines=0;" parent="1" vertex="1">
          <mxGeometry x="760" y="40" width="200" height="210" as="geometry" />
        </mxCell>
        <mxCell id="Claim_0" value="+ ClaimID (PK)" style="shape=tableRow;align=left;spacingLeft=4;" parent="Claim" vertex="1">
          <mxGeometry y="30" width="200" height="20" as="geometry" />
        </mxCell>
        <mxCell id="Claim_1" value="PolicyID (FK)" style="shape=tableRow;align=left;spacingLeft=4;" parent="Claim" vertex="1">
          <mxGeometry y="50" width="200" height="20" as="geometry" />
        </mxCell>
        <mxCell id="Claim_2" value="ClaimType" style="shape=tableRow;align=left;spacingLeft=4;" parent="Claim" vertex="1">
          <mxGeometry y="70" width="200" height="20" as="geometry" />
        </mxCell>
        <mxCell id="Claim_3" value="IncidentDate" style="shape=tableRow;align=left;spacingLeft=4;" parent="Claim" vertex="1">
          <mxGeometry y="90" width="200" height="20" as="geometry" />
        </mxCell>
        <mxCell id="Claim_4" value="Description" style="shape=tableRow;align=left;spacingLeft=4;" parent="Claim" vertex="1">
          <mxGeometry y="110" width="200" height="20" as="geometry" />
        </mxCell>
        <mxCell id="Claim_5" value="Amount" style="shape=tableRow;align=left;spacingLeft=4;" parent="Claim" vertex="1">
          <mxGeometry y="130" width="200" height="20" as="geometry" />
        </mxCell>
        <mxCell id="Claim_6" value="Documents" style="shape=tableRow;align=left;spacingLeft=4;" parent="Claim" vertex="1">
          <mxGeometry y="150" width="200" height="20" as="geometry" />
        </mxCell>
        <mxCell id="Claim_7" value="Status" style="shape=tableRow;align=left;spacingLeft=4;" parent="Claim" vertex="1">
          <mxGeometry y="170" width="200" height="20" as="geometry" />
        </mxCell>
        <mxCell id="Claim_8" value="DecisionDate" style="shape=tableRow;align=left;spacingLeft=4;" parent="Claim" vertex="1">
          <mxGeometry y="190" width="200" height="20" as="geometry" />
        </mxCell>
        <mxCell id="Payment" value="Payment" style="shape=table;startSize=30;container=1;collapsible=0;childLayout=tableLayout;fixedRows=1;rowLines=0;" parent="1" vertex="1">
          <mxGeometry x="400" y="410" width="200" height="170" as="geometry" />
        </mxCell>
        <mxCell id="Payment_0" value="+ PaymentID (PK)" style="shape=tableRow;align=left;spacingLeft=4;" parent="Payment" vertex="1">
          <mxGeometry y="30" width="200" height="20" as="geometry" />
        </mxCell>
        <mxCell id="Payment_1" value="PolicyID (FK)" style="shape=tableRow;align=left;spacingLeft=4;" parent="Payment" vertex="1">
          <mxGeometry y="50" width="200" height="20" as="geometry" />
        </mxCell>
        <mxCell id="Payment_2" value="PaymentDate" style="shape=tableRow;align=left;spacingLeft=4;" parent="Payment" vertex="1">
          <mxGeometry y="70" width="200" height="20" as="geometry" />
        </mxCell>
        <mxCell id="Payment_3" value="Amount" style="shape=tableRow;align=left;spacingLeft=4;" parent="Payment" vertex="1">
          <mxGeometry y="90" width="200" height="20" as="geometry" />
        </mxCell>
        <mxCell id="Payment_4" value="Method" style="shape=tableRow;align=left;spacingLeft=4;" parent="Payment" vertex="1">
          <mxGeometry y="110" width="200" height="20" as="geometry" />
        </mxCell>
        <mxCell id="Payment_5" value="Reference " style="shape=tableRow;align=left;spacingLeft=4;" parent="Payment" vertex="1">
          <mxGeometry y="130" width="200" height="20" as="geometry" />
        </mxCell>
        <mxCell id="Payment_6" value="Status" style="shape=tableRow;align=left;spacingLeft=4;" parent="Payment" vertex="1">
          <mxGeometry y="150" width="200" height="20" as="geometry" />
        </mxCell>
        <mxCell id="OGsNQ4hMO1-vXhyGlJds-3" value="" style="fontSize=12;html=1;endArrow=ERzeroToMany;startArrow=ERmandOne;rounded=0;" edge="1" parent="1" source="User">
          <mxGeometry width="100" height="100" relative="1" as="geometry">
            <mxPoint x="140.79999999999995" y="398.20000000000005" as="sourcePoint" />
            <mxPoint x="130" y="230" as="targetPoint" />
          </mxGeometry>
        </mxCell>
        <mxCell id="OGsNQ4hMO1-vXhyGlJds-4" value="" style="edgeStyle=entityRelationEdgeStyle;fontSize=12;html=1;endArrow=ERzeroToMany;startArrow=ERmandOne;rounded=0;entryX=0;entryY=0.5;entryDx=0;entryDy=0;" edge="1" parent="1" target="Policy_2">
          <mxGeometry width="100" height="100" relative="1" as="geometry">
            <mxPoint x="250" y="130" as="sourcePoint" />
            <mxPoint x="350" y="160" as="targetPoint" />
          </mxGeometry>
        </mxCell>
        <mxCell id="OGsNQ4hMO1-vXhyGlJds-6" value="" style="fontSize=12;html=1;endArrow=ERzeroToMany;startArrow=ERzeroToOne;rounded=0;exitX=1;exitY=0;exitDx=0;exitDy=0;entryX=0;entryY=0.5;entryDx=0;entryDy=0;" edge="1" parent="1" source="Policy_3" target="Claim_3">
          <mxGeometry width="100" height="100" relative="1" as="geometry">
            <mxPoint x="650" y="310" as="sourcePoint" />
            <mxPoint x="750" y="160" as="targetPoint" />
            <Array as="points" />
          </mxGeometry>
        </mxCell>
        <mxCell id="OGsNQ4hMO1-vXhyGlJds-8" value="" style="fontSize=12;html=1;endArrow=ERoneToMany;rounded=0;exitX=0.448;exitY=-0.013;exitDx=0;exitDy=0;exitPerimeter=0;" edge="1" parent="1" source="Payment">
          <mxGeometry width="100" height="100" relative="1" as="geometry">
            <mxPoint x="400" y="390" as="sourcePoint" />
            <mxPoint x="489" y="240" as="targetPoint" />
          </mxGeometry>
        </mxCell>
        <mxCell id="User" value="User" style="shape=table;startSize=30;container=1;collapsible=0;childLayout=tableLayout;fixedRows=1;rowLines=0;" parent="1" vertex="1">
          <mxGeometry x="30" y="420" width="200" height="150" as="geometry" />
        </mxCell>
        <mxCell id="User_0" value="+ UserID (PK)" style="shape=tableRow;align=left;spacingLeft=4;startSize=0;" parent="User" vertex="1">
          <mxGeometry y="30" width="200" height="20" as="geometry" />
        </mxCell>
        <mxCell id="User_1" value="PolicyHolderID (FK)" style="shape=tableRow;align=left;spacingLeft=4;startSize=0;" parent="User" vertex="1">
          <mxGeometry y="50" width="200" height="20" as="geometry" />
        </mxCell>
        <mxCell id="User_2" value="PasswordHash" style="shape=tableRow;align=left;spacingLeft=4;startSize=0;" parent="User" vertex="1">
          <mxGeometry y="70" width="200" height="20" as="geometry" />
        </mxCell>
        <mxCell id="User_3" value="Role" style="shape=tableRow;align=left;spacingLeft=4;startSize=0;" parent="User" vertex="1">
          <mxGeometry y="90" width="200" height="20" as="geometry" />
        </mxCell>
        <mxCell id="User_4" value="CreatedAt" style="shape=tableRow;align=left;spacingLeft=4;startSize=0;" parent="User" vertex="1">
          <mxGeometry y="110" width="200" height="20" as="geometry" />
        </mxCell>
        <mxCell id="User_5" value="Username" style="shape=tableRow;align=left;spacingLeft=4;startSize=0;" parent="User" vertex="1">
          <mxGeometry y="130" width="200" height="20" as="geometry" />
        </mxCell>
      </root>
    </mxGraphModel>
  </diagram>
</mxfile>
